<?xml version="1.0" encoding="UTF-8" standalone="no"?><!DOCTYPE svg PUBLIC "-//W3C//DTD SVG 1.1//EN" "http://www.w3.org/Graphics/SVG/1.1/DTD/svg11.dtd"><svg width="100%" height="100%" viewBox="0 0 1024 1024" version="1.1" xmlns="http://www.w3.org/2000/svg" xmlns:xlink="http://www.w3.org/1999/xlink" xml:space="preserve" xmlns:serif="http://www.serif.com/" style="fill-rule:evenodd;clip-rule:evenodd;stroke-linejoin:round;stroke-miterlimit:2;"><path d="M934.481,472.129l-177.881,-309.363c-13.594,-24.109 -39.015,-39.268 -66.688,-39.77l-355.829,0c-27.676,0.488 -53.103,15.651 -66.688,39.77l-177.948,308.551c-13.749,23.926 -13.749,53.45 0,77.375l177.881,311.122c13.446,24.452 38.803,40.114 66.688,41.19l355.829,0c27.882,-0.957 53.286,-16.555 66.755,-40.987l177.881,-309.363c13.845,-24.311 13.845,-54.214 0,-78.525Z" style="fill:#7842f4;fill-rule:nonzero;"/><g id="Ebene1"></g><path id="Schatten" d="M894.968,619.199l-126.715,220.378l-457.529,-395.802l26.352,-30.521l41.101,7.799l-39.772,-34.338l5.179,-5.998l21.089,4.002l9.358,-20.71l-7.664,-9.679l4.097,-4.746l80.491,69.495l13.811,-30.567l-86.001,-74.253l5.178,-5.999l21.089,4.002l9.358,-20.71l-7.664,-9.679l4.097,-4.746l75.008,64.762l6.169,-13.654l-38.996,-49.252l20.849,-24.147l421.115,364.363Z" style="fill-opacity:0.1;"/><path d="M646.62,724.402c0,0 -112.612,-268.768 -186.693,-260.798c-49.393,2.435 -101.798,-4.469 -149.203,-19.571c7.813,-11.745 15.648,-24.204 23.427,-37.286c31.86,10.636 67.438,15.544 100.9,13.895c20.67,-27.41 36.892,-60.527 45.88,-93.659c-19.207,-27.45 -44.892,-52.553 -72.825,-71.208c5.568,-14.164 10.61,-27.991 15.101,-41.363c40.989,28.198 78.566,65.374 106.917,105.892c2.075,6.06 -5.176,24.069 -7.681,30.31c-12.899,32.131 -2.053,78.764 175.683,344.051c4.103,7.106 14.465,38.376 7.361,42.485l-25.753,14.869c-7.107,4.103 -29.011,-20.51 -33.114,-27.617Zm23.588,-18.619c7.629,-4.404 17.398,-1.786 21.802,5.842c4.404,7.629 1.787,17.398 -5.842,21.802c-7.628,4.404 -17.397,1.787 -21.802,-5.842c-4.404,-7.628 -1.786,-17.397 5.842,-21.802Zm-333.318,-344.56c5.911,-12.068 20.508,-17.065 32.575,-11.154c12.067,5.911 17.065,20.507 11.154,32.575c-5.911,12.067 -20.508,17.065 -32.575,11.154c-12.067,-5.912 -17.065,-20.508 -11.154,-32.575Zm36.925,-75.379c5.912,-12.067 20.508,-17.065 32.575,-11.153c12.067,5.911 17.065,20.507 11.154,32.574c-5.911,12.068 -20.508,17.065 -32.575,11.154c-12.067,-5.911 -17.065,-20.507 -11.154,-32.575Z" style="fill:#fff;"/></svg>